<svg xmlns="http://www.w3.org/2000/svg" width="1230.968" height="497.543" viewBox="0 0 1230.968 497.543">
  <g id="transition-paw-rock" transform="translate(1232.469 -1.06) rotate(90)">
    <path id="fill_1_" d="M8.8,1229.728,40.39,253.691C-12.75-22.94,155.976,49.451,155.976,49.451S173.608,17.227,233.6,10.192c55.589-6.127,86.934,10.893,119.749,42.663,0,0,155.012-78.065,136.156,177.461L488.04,1180.03" transform="translate(0)" fill="#fff"/>
    <path id="line_1_" d="M8.8,1224.729,40.39,254.291C-12.75-23.108,155.976,49.435,155.976,49.435S173.608,17.042,233.6,10.2c55.589-6.159,86.934,10.95,119.749,42.887,0,0,155.012-78.475,136.156,177.936L488.04,1183.21" transform="translate(0 0)" fill="none" stroke="#000" stroke-linecap="round" stroke-linejoin="round" stroke-miterlimit="10" stroke-width="15"/>
  </g>
</svg>
