<svg xmlns="http://www.w3.org/2000/svg" width="1306.301" height="488.116" viewBox="0 0 1306.301 488.116">
  <g id="그룹_263" data-name="그룹 263" transform="translate(-61.159 -184.279)">
    <g id="그룹_261" data-name="그룹 261">
      <path id="패스_551" data-name="패스 551" d="M1354,284.49,574.1,411.98c-46.5-10.5-66.15-28.1-81-45-16.98-19.32-10.02-26.15-25.2-46.73l286.09-35.76Z" fill="#ffefde"/>
      <path id="패스_552" data-name="패스 552" d="M753.99,284.49,467.9,320.25c-1-1.36-2.09-2.77-3.3-4.26-19.5-24-118.49-27-158.99-40.5s-46.5-40.5,0-67.5,221.99-10.5,283.49,0,151.49,76.5,151.49,76.5Z" fill="#ffefde"/>
      <path id="패스_553" data-name="패스 553" d="M467.9,320.25c15.18,20.58,8.22,27.41,25.2,46.73,14.85,16.9,34.5,34.5,81,45L1354,284.49h4.46V585.97c-39,10.5-292.49-10.5-343.78-19.5s-142.2-3-187.81-1.5-32.39,7.5-63.88,25.5-144,58.5-200.99,69-126-3-195-6-220.48-39-227.98-46.5-30-15,1.5-39c19.65-14.98,119.31-3.09,180.91,6.52,19.78,4.21,35.53,7.3,44.08,8.48,16.35,2.26-6.95-2.7-44.08-8.48-80.8-17.2-228.91-53.01-228.91-53.01s-36-21-16.62-42c9.13-9.89,78.88-7.14,150.14-1.46,76.92,9.14,156.34,15.98,161.67,16.43l.29.03-.29-.03c-5.33-.66-84.38-10.26-161.67-16.43-72.38-8.61-142.55-19.26-146.67-28.54-8.65-19.5-.35-34.5,16.15-45,7.5-4.77,73.26-3.66,142.76-1.02,73.22,4.1,165.17,8.21,171.84,8.5-6.37-.38-91.6-5.46-171.84-8.5-43.3-2.42-80.05-4.85-88.76-6.48-24-4.5-55.5-24-55.5-24s-37.5-19.5,7.5-44.99S466,320.49,466,320.49Z" fill="#ffefde"/>
      <path id="패스_554" data-name="패스 554" d="M387.71,494.45l.29.03Z" fill="#fff"/>
      <path id="패스_555" data-name="패스 555" d="M410.12,411.96c-6.67-.29-98.62-4.4-171.84-8.5C318.52,406.5,403.75,411.58,410.12,411.96Z" fill="#fff"/>
      <path id="패스_556" data-name="패스 556" d="M321.43,574.49c37.13,5.78,60.43,10.74,44.08,8.48C356.96,581.79,341.21,578.7,321.43,574.49Z" fill="#fff"/>
      <path id="패스_557" data-name="패스 557" d="M387.71,494.45c-5.33-.45-84.75-7.29-161.67-16.43C303.33,484.19,382.38,493.79,387.71,494.45Z" fill="#fff"/>
    </g>
    <g id="그룹_262" data-name="그룹 262">
      <path id="패스_558" data-name="패스 558" d="M321.43,574.49c-61.6-9.61-161.26-21.5-180.91-6.52-31.5,24-9,31.5-1.5,39s158.99,43.5,227.98,46.5,138,16.5,195,6,169.49-51,200.99-69,18.27-24,63.88-25.5,136.52-7.5,187.81,1.5,304.78,30,343.78,19.5V284.49H1354" fill="none" stroke="#1d1d1b" stroke-width="18"/>
      <path id="패스_559" data-name="패스 559" d="M321.43,574.49c19.78,4.21,35.53,7.3,44.08,8.48C381.86,585.23,358.56,580.27,321.43,574.49Z" fill="none" stroke="#1d1d1b" stroke-width="18"/>
      <path id="패스_560" data-name="패스 560" d="M387.71,494.45c-5.33-.66-84.38-10.26-161.67-16.43-71.26-5.68-141.01-8.43-150.14,1.46-19.38,21,16.62,42,16.62,42s148.11,35.81,228.91,53.01" fill="none" stroke="#1d1d1b" stroke-width="18"/>
      <path id="패스_561" data-name="패스 561" d="M387.71,494.45l.29.03Z" fill="none" stroke="#1d1d1b" stroke-width="18"/>
      <path id="패스_562" data-name="패스 562" d="M410.5,411.98s-.13-.01-.38-.02c-6.37-.38-91.6-5.46-171.84-8.5-69.5-2.64-135.26-3.75-142.76,1.02-16.5,10.5-24.8,25.5-16.15,45,4.12,9.28,74.29,19.93,146.67,28.54,76.92,9.14,156.34,15.98,161.67,16.43" fill="none" stroke="#1d1d1b" stroke-width="18"/>
      <path id="패스_563" data-name="패스 563" d="M466,320.49s-319.48-18-364.48,7.5-7.5,44.99-7.5,44.99,31.5,19.5,55.5,24c8.71,1.63,45.46,4.06,88.76,6.48,73.22,4.1,165.17,8.21,171.84,8.5" fill="none" stroke="#1d1d1b" stroke-width="18"/>
      <path id="패스_564" data-name="패스 564" d="M1354,284.49H740.59s-90-66-151.49-76.5-236.99-27-283.49,0-40.5,54,0,67.5,139.49,16.5,158.99,40.5c1.21,1.49,2.3,2.9,3.3,4.26,15.18,20.58,8.22,27.41,25.2,46.73,14.85,16.9,34.5,34.5,81,45" fill="none" stroke="#1d1d1b" stroke-width="18"/>
    </g>
  </g>
</svg>
