<svg xmlns="http://www.w3.org/2000/svg" width="78.688" height="83.87" viewBox="0 0 78.688 83.87">
  <g id="그룹_244" data-name="그룹 244" transform="matrix(-0.07, -0.998, 0.998, -0.07, 2.991, 86.006)">
    <path id="패스_480" data-name="패스 480" d="M4.715,27.618a3.189,3.189,0,0,1,.728-3.233,6.348,6.348,0,0,0,.848-2.194,5.426,5.426,0,0,0,.471-2.506,2.07,2.07,0,0,1,.885-1.793,1.7,1.7,0,0,0,.611-1.219A12.768,12.768,0,0,1,8.6,14.321c.185-.637.707-1.179.874-1.817.159-.605-.045-1.3.089-1.92a2,2,0,0,1,1.278-1.4A1.632,1.632,0,0,0,11.863,8a2.822,2.822,0,0,1,1.147-1.54,2.769,2.769,0,0,0,.706-.785,2.726,2.726,0,0,1,1.777-1.33c.174-.039.431-.045.5-.159.57-.919,1.607-1.218,2.418-1.8A36.356,36.356,0,0,0,21.505.354a1.993,1.993,0,0,1,2.184-.06,4.212,4.212,0,0,0,3.156.334A10.818,10.818,0,0,1,28.981.307a2.433,2.433,0,0,1,2.344,1.1c.183.267.315.57.518.945a8.524,8.524,0,0,0,1.462-.014A2.824,2.824,0,0,1,36.19,3.477,6.826,6.826,0,0,0,38.536,5.17,17.856,17.856,0,0,1,40.81,6.813a8.512,8.512,0,0,0,.956.7,4.857,4.857,0,0,1,2.066,1.707,2,2,0,0,0,.98.635A2.621,2.621,0,0,1,46.6,12.117c.012.108-.011.262.051.317.891.785,1.194,2.01,2.09,2.788.3.261.594.532.906.778a2.208,2.208,0,0,0,.712.464,2.664,2.664,0,0,1,2.1,2.849,2.877,2.877,0,0,1,.665.307,4.511,4.511,0,0,1,1.313,1.228A15.935,15.935,0,0,0,55.613,22.9a2.318,2.318,0,0,1,.364,2.076A1.337,1.337,0,0,0,56.14,26.1a3.238,3.238,0,0,1,.071,3.129,1.9,1.9,0,0,0,.152,2.295,2.363,2.363,0,0,1,.039,2.856,9.481,9.481,0,0,0-.711,1.432,2.812,2.812,0,0,1-1.521,1.618,1.861,1.861,0,0,0-.822.618,3.971,3.971,0,0,1-2.477,1.826,2.289,2.289,0,0,0-1.563,1.2A2.209,2.209,0,0,1,47.147,42.3a11.861,11.861,0,0,0-4.352.692,1.543,1.543,0,0,1-1.06.052c-.944-.49-1.989-.293-2.951-.555a1.186,1.186,0,0,0-1.2.252,2.59,2.59,0,0,1-3.215.373c-.064-.035-.131-.1-.195-.093A31.308,31.308,0,0,0,31,43.2a3.382,3.382,0,0,1-1.81,0,2.655,2.655,0,0,0-2.67.373A3.048,3.048,0,0,1,23.8,44.1a3.124,3.124,0,0,1-2.324,1.2c-.718-.014-1.44-.007-2.156.046a2.376,2.376,0,0,0-1.144.285c-1.161.81-2.438.525-3.693.5-.353-.006-.706-.011-1.059-.006-.217,0-.463.1-.646.026-1.1-.436-2.287-.2-3.405-.491A4.207,4.207,0,0,0,8.2,45.588,2.632,2.632,0,0,1,6.064,44.7c-.442-.477-.994-.865-1.382-1.38a6.02,6.02,0,0,0-2.3-2.287,1.431,1.431,0,0,1-.578-.765c-.325-.8-.584-1.625-.887-2.434a6.847,6.847,0,0,0-.483-1.073A2.542,2.542,0,0,1,.881,33.4a2.265,2.265,0,0,0,.805-2.091,2.943,2.943,0,0,1,1.6-2.776Z" transform="translate(17.545 30.903)" fill="#f1d9af"/>
    <path id="패스_481" data-name="패스 481" d="M4.928,1.576a3.871,3.871,0,0,1,.5.19.631.631,0,0,0,.929-.252A2.684,2.684,0,0,1,9.258.268,2.053,2.053,0,0,0,10.1.138a2.721,2.721,0,0,1,2.569.451,1.61,1.61,0,0,0,.949.4,3.165,3.165,0,0,1,3.217,2.431A3.018,3.018,0,0,0,18.6,5.448a2.269,2.269,0,0,1,1.375,1.959,8.248,8.248,0,0,1,.085,2.162c-.192,1.244-.541,2.463-.824,3.693-1.455,1.857-1.725,4.19-2.556,6.3a5.742,5.742,0,0,1-2.152,2.756,3.643,3.643,0,0,0-1.059,1.329,2.624,2.624,0,0,1-2.919,1.577,4.3,4.3,0,0,1-2.269-.65,1.1,1.1,0,0,0-.713-.137A3.182,3.182,0,0,1,5.6,23.9a13.952,13.952,0,0,1-1.641-1.038,2.7,2.7,0,0,1-.625-.992,2.785,2.785,0,0,0-1.66-1.708,2.269,2.269,0,0,1-1.309-2.8,4.22,4.22,0,0,0-.181-2.612,11.777,11.777,0,0,1-.179-3A6,6,0,0,0,.074,10.9a3.073,3.073,0,0,1,.77-2.623A1.114,1.114,0,0,0,1.1,7.011,2.306,2.306,0,0,1,1.652,4.5,4.851,4.851,0,0,1,3.8,2.753C4.242,2.619,4.538,2,4.928,1.576Z" transform="translate(0 30.615)" fill="#f1d9af"/>
    <path id="패스_482" data-name="패스 482" d="M1.046,15.312C.865,15.088.676,14.87.5,14.64a2.381,2.381,0,0,1-.4-2.169c.231-.8.558-1.562.835-2.344.094-.268.155-.547.247-.816q.258-.761.535-1.515A7.194,7.194,0,0,0,2.042,7,2.542,2.542,0,0,1,3.655,5.089,1.841,1.841,0,0,0,4.936,3.627a2.484,2.484,0,0,1,2.01-1.922c.314-.079.72-.065.924-.26.867-.833,2.015-.94,3.065-1.3a2.678,2.678,0,0,1,2.01.122,3.451,3.451,0,0,0,1.12.309A2.568,2.568,0,0,1,16.576,2.46c.1.309.141.6.521.75a2.67,2.67,0,0,1,1.774,3.132c.4.643,1,1.193,1.058,1.8a19.038,19.038,0,0,0,.768,3.787,2.163,2.163,0,0,1-.569,1.917c-.287.371-.531.774-.793,1.164a1.521,1.521,0,0,0-.2,1.345,2.536,2.536,0,0,1-.7,2.5,3.08,3.08,0,0,0-.585.99,2.991,2.991,0,0,1-1.343,1.649c-.312.182-.6.4-.919.576a3.71,3.71,0,0,0-1.433,1.408,4.851,4.851,0,0,1-1.39,1.356,2.448,2.448,0,0,1-3.187-.334,6.335,6.335,0,0,0-2.651-1.613A4.4,4.4,0,0,1,4.8,21.46a11.776,11.776,0,0,0-2.18-1.9,3.981,3.981,0,0,1-1.558-1.905,10.016,10.016,0,0,1-.2-2.31Z" transform="translate(22.124 0)" fill="#f1d9af"/>
    <path id="패스_483" data-name="패스 483" d="M.026,16.911c-.016-.23-.024-.267-.02-.3a55.166,55.166,0,0,0,.061-5.826A3.879,3.879,0,0,1,.551,9.368,18.39,18.39,0,0,1,1.62,7.253,6.035,6.035,0,0,1,2.847,5.775a1.915,1.915,0,0,0,.827-1.557A2.409,2.409,0,0,1,4.73,2.176c.282-.21.469-.547.746-.765C5.894,1.082,6.341.577,6.8.552,7.969.488,9.117-.143,10.329.377c.209.09.549-.07.811-.165a2.686,2.686,0,0,1,3.2.88A9.425,9.425,0,0,0,16.8,3.309a3.564,3.564,0,0,1,1.387,4.111,2.193,2.193,0,0,0-.163,1.357c.17.888.28,1.787.438,2.677a2.644,2.644,0,0,1-.817,2.47c-.347.348-.569.83-.936,1.15-.907.791-.956,2-1.514,2.923a8.263,8.263,0,0,0-1.472,3.357,41.9,41.9,0,0,1-3.083,3.018,2.709,2.709,0,0,1-1.765.221,2.82,2.82,0,0,0-1.255.078,2.7,2.7,0,0,1-3.645-1.2,1.669,1.669,0,0,0-.752-.534,2.509,2.509,0,0,1-1.737-2.05,2.731,2.731,0,0,0-.8-1.617A2.737,2.737,0,0,1,.026,16.911Z" transform="translate(47.893 1.678)" fill="#f1d9af"/>
    <path id="패스_484" data-name="패스 484" d="M7.353,0a4.32,4.32,0,0,1,.725.156c.841.312,1.662.679,2.51.967a4.085,4.085,0,0,0,1.273.194c2.114.012,3.23,1.387,2.711,3.412a1.21,1.21,0,0,0,.1.916C15.287,6.917,15.9,8.192,16.422,9.5s-.109,2.4-.787,3.46a7.057,7.057,0,0,1-.567.661,1.91,1.91,0,0,0-.539,1.483,2.293,2.293,0,0,1-.627,1.8,5.49,5.49,0,0,0-.926,1.689,23.468,23.468,0,0,0-.85,2.428,2.434,2.434,0,0,1-1.5,1.483,7.646,7.646,0,0,0-1.3.749,2.385,2.385,0,0,1-3.466-.494,1.908,1.908,0,0,0-1.2-.817,2.636,2.636,0,0,1-.943-.517c-.6-.465-1.169-.969-1.749-1.459a1.047,1.047,0,0,1-.233-.228c-.188-.307-.5-.619-.515-.937C1.18,17.457-.25,16.5.194,15.031A.923.923,0,0,0,.243,14.5a2.982,2.982,0,0,1,.128-2.628.81.81,0,0,0,.019-.424C.31,10.518.207,9.591.143,8.661A2.3,2.3,0,0,1,1.172,6.5a2.054,2.054,0,0,0,.737-1.028c.2-.5.511-.949.75-1.433A6.735,6.735,0,0,0,3,3.156c.179-.55.293-1.125.524-1.651A2.086,2.086,0,0,1,5.172.223C5.851.12,6.541.08,7.353,0Z" transform="translate(66.715 17.513)" fill="#f1d9af"/>
  </g>
</svg>
