<svg xmlns="http://www.w3.org/2000/svg" width="359.5" height="406.316" viewBox="0 0 359.5 406.316">
  <g id="그룹_228" data-name="그룹 228" transform="translate(-1090.964 -1854)">
    <path id="패스_489" data-name="패스 489" d="M1228.241,2106.588a8.382,8.382,0,0,0-5.681,1.5,3.643,3.643,0,0,0-1.254,2c-2.19,9.006-8.63,17.653-14.857,26.016-1.016,1.365-2.033,2.731-3.032,4.1-2.489,3.4-4.783,6.856-6.821,10.262-.735,1.229-1.382,2.8.158,4.006a8.8,8.8,0,0,0,4.419,1.381,16.059,16.059,0,0,0,1.678.094c4.061,0,5.155-1.866,5.907-3.149.1-.175.205-.35.313-.52,1.591-2.52,3.335-5.069,5.023-7.534,2-2.915,4.059-5.929,5.89-8.927,1.1-1.806,2.32-3.637,3.5-5.408,3.914-5.888,7.96-11.977,8.686-18.382.032-.293.073-.587.116-.881a11.908,11.908,0,0,0,.173-2.139C1232.377,2107.059,1229.781,2106.655,1228.241,2106.588Z" transform="translate(-60.205 121.314) rotate(-1)" fill="#ffd68e"/>
    <path id="패스_490" data-name="패스 490" d="M1303.538,1869.288a6.029,6.029,0,0,0-4.739.418c-2.517,1.453-3.365,4.666-4.116,7.5-.141.532-.278,1.054-.424,1.545-1.254,4.235-2.491,8.551-3.688,12.724-4.862,16.964-9.89,34.505-17.283,50.879-2.889,6.4-3.033,12.475-.482,20.308l.864,2.652,1.93-2.015c3.586-3.745,4.549-7.687,5.4-11.165a21.33,21.33,0,0,1,1.824-5.407c9.428-16.781,14.836-35.321,20.065-53.252,1.088-3.731,2.214-7.59,3.355-11.367.177-.583.41-1.217.657-1.89.952-2.586,2.032-5.517.757-7.985A6.145,6.145,0,0,0,1303.538,1869.288Z" transform="translate(47.067 -15)" fill="#ffd68e"/>
    <path id="패스_491" data-name="패스 491" d="M1188.961,1977l1.429-.007.213-1.412a32.755,32.755,0,0,0-.882-15.233c-5.717-18.07-11.374-37.543-14.033-57.5a15.211,15.211,0,0,0-1.188-4.075c-1.592-3.627-4.392-5.159-7.883-4.308-2.9.705-4.307,2.936-4.176,6.63a39.024,39.024,0,0,0,.619,5.059c.079.47.158.94.231,1.41,3.139,20.13,10.047,39.419,16.727,58.073q1.158,3.235,2.311,6.471c.748,2.1,2.242,4.893,6.577,4.893Z" transform="translate(5.519 -5.779)" fill="#ffd68e"/>
    <path id="패스_492" data-name="패스 492" d="M1395.549,1978.442a76.112,76.112,0,0,0,9.957-8.446c.879-.837,1.756-1.674,2.642-2.494a5.731,5.731,0,0,0,.876-7.9,7.194,7.194,0,0,0-2.58-1.97c-.366-.2-.75-.408-1.128-.653l-.795-.515-.85.418c-.427.21-.891.4-1.384.6a10.7,10.7,0,0,0-3.459,1.934c-7.067,6.584-15.266,12-23.2,17.233A227.107,227.107,0,0,0,1357,1989.871c-.276.224-.554.447-.83.667-2.166,1.73-4.406,3.517-5.469,6.59-1.083,3.133-.286,6.052,2.08,7.619a3.913,3.913,0,0,0,2.194.659,6.869,6.869,0,0,0,4.365-1.961c7.969-6.955,17.05-12.723,25.831-18.3C1388.588,1982.976,1392.119,1980.732,1395.549,1978.442Z" transform="translate(34.676 15.532)" fill="#ffd68e"/>
    <path id="패스_493" data-name="패스 493" d="M1146.444,2079.443a7.626,7.626,0,0,0-7.614.7c-18.18,12.529-32.75,28.466-45.787,43.822-.791.931-2.264,2.667-2.062,4.728a4.512,4.512,0,0,0,1.851,3.11,4.674,4.674,0,0,0,2.946,1.134c2.042,0,3.718-1.541,4.678-2.425,3.874-3.564,7.733-7.265,11.466-10.843,10.559-10.122,21.477-20.589,33.784-29a7.763,7.763,0,0,0,3.756-7.194A4.985,4.985,0,0,0,1146.444,2079.443Z" transform="translate(0 39.159)" fill="#ffd68e"/>
    <path id="패스_494" data-name="패스 494" d="M1351.939,2185.182c-.577-1.855-1.182-3.884-1.82-6.028-1.605-5.382-3.424-11.482-5.594-17.485-2.541-7.031-6.9-13.074-11.119-18.918-.757-1.049-1.514-2.1-2.26-3.151-2.553-3.607-5.152-2.812-6.472-2.019-2.422,1.453-3.444,3.826-2.668,6.193a27.216,27.216,0,0,0,3.277,7.365c5.043,7.089,8.664,15.383,11.4,26.1,1.179,4.625,2.537,9.167,4.04,13.5.846,2.439,2.87,4.677,5.629,4.677a5.405,5.405,0,0,0,1-.094c5.532-1.045,4.921-7.187,4.661-9.809Z" transform="translate(18.348 64.899)" fill="#ffd68e"/>
    <path id="패스_495" data-name="패스 495" d="M1105.155,2023.742c9.769,3.675,19.87,7.474,32.463,7.833l.043,0,.059,0a4.629,4.629,0,0,1,.487.054,11.671,11.671,0,0,0,1.573.13,4.808,4.808,0,0,0,3.035-.943,5.207,5.207,0,0,0,1.827-3.677c.637-5.408-4.948-7.031-6.784-7.563-9.423-2.734-18.717-5.26-29.018-8.043-3.763-1.016-6.985.239-8.413,3.277a5.8,5.8,0,0,0-.311,4.784c.718,1.765,2.4,3.155,4.995,4.131l.587-1.563h0Z" transform="translate(-2.009 19.124)" fill="#ffd68e"/>
    <path id="패스_496" data-name="패스 496" d="M1415.82,2092.821c-4.412-1.225-8.883-2.564-13.205-3.859-3.985-1.193-8.1-2.427-12.182-3.573a26.5,26.5,0,0,0-7.908-1.037,5.771,5.771,0,0,0-5.855,5.289,5.214,5.214,0,0,0,3.851,5.673,141.131,141.131,0,0,1,13.886,4.426c6.084,2.173,11.832,4.226,17.779,5.157l.168.026.813-.037c3.641-.159,8.173-.358,8.641-5.558C1422.234,2094.6,1417.9,2093.4,1415.82,2092.821Z" transform="translate(28.627 28.967)" fill="#ffd68e"/>
  </g>
</svg>
