<svg xmlns="http://www.w3.org/2000/svg" width="116.203" height="11.517" viewBox="0 0 116.203 11.517">
  <path id="패스_457" data-name="패스 457" d="M107.607,6.924l.3-.716.506.352,1.234-.881c-.051.423-.074.619-.111.935.478-.047.888-.06,1.284-.132a3.887,3.887,0,0,1,2.044.066,2.119,2.119,0,0,0,2.93-1.775c.049-.324.138-.644.222-1.029-1.25-.732-2.458-1.307-3.992-.465-.3.164-.9-.143-1.351-.126a3.643,3.643,0,0,0-.984.348c-.734-.5-1.75-.258-2.657-.239-2.437.051-4.872.245-7.3.433a7.951,7.951,0,0,0-1.578.456c-1.211-.74-2.637-.456-4-.5a16.925,16.925,0,0,1-2.107.107c-1.433-.239-2.852.155-4.3-.1a20.21,20.21,0,0,0-3.067.1,4.493,4.493,0,0,0-2.067.07c-.28.123-.725-.059-1.1-.079-.842-.044-1.686-.071-2.529-.11-.322-.015-.644-.033-.964-.066a8.5,8.5,0,0,0-.975-.124c-1.646.026-3.292.069-4.937.119-.565.017-1.128.08-1.692.1a1.674,1.674,0,0,1-.8-.043C68.39,2.9,67,3.177,65.674,3.12c-.791-.033-1.588.01-2.381.039-.453.016-.9.079-1.355.106a4.037,4.037,0,0,1-1.106.02,32.052,32.052,0,0,0-5.844-.479c-1.3-.061-2.6-.121-3.906-.2-.718-.041-1.506.29-2.134-.314-.082-.079-.351-.026-.529,0s-.39.153-.541.111c-2.68-.742-5.486.137-8.175-.5a2.665,2.665,0,0,0-.985.021c-.811.129-1.614.293-2.517.461-.291-.793-.826-.905-1.736-.969-1.476-.1-3,.271-4.452-.274a3.746,3.746,0,0,0-1.114-.01c-.594-.013-1.188-.04-1.781-.06a4.332,4.332,0,0,0-.965-.016,2.882,2.882,0,0,1-2.18-.135C23.776.81,23.424.9,23.143.9c-.6,0-1.191,0-2.047,0l-1,.668C19.809.3,18.845.261,17.78.445A6.689,6.689,0,0,1,14.711.27a2.842,2.842,0,0,0-.826-.145C11.925.157,9.966.242,8.007.247,6.6.252,5.188.161,3.779.107,2.854.072,1.93-.005,1.007,0a.932.932,0,0,0-.99.884c-.062.455.031.866.618.965a15.538,15.538,0,0,0,3.067.4,14.8,14.8,0,0,1,3.6.274,43.939,43.939,0,0,0,5.472.5,5.721,5.721,0,0,1,1.265.021,4.5,4.5,0,0,0,3.857-.462c.836.479,1.475,1.175,2.536,1.059.465-.051.941-.038,1.4-.1a3.907,3.907,0,0,1,2.595.176.681.681,0,0,0,.407.085c1.794-.321,3.427.464,5.159.563s3.481.255,5.225.3a6.574,6.574,0,0,0,3.609-.7v.888c3.137.31,6.286.633,9.44.923A7.171,7.171,0,0,0,49.816,5.7c.971-.125,1.943-.392,2.815.284a.773.773,0,0,0,.545.052,9.058,9.058,0,0,1,3.744.057,1.317,1.317,0,0,0,.429,0,12.285,12.285,0,0,1,4.059.228,3.909,3.909,0,0,0,3.145-.59,1.88,1.88,0,0,0,1.781.758c1.692.049,3.38.207,5.069.32.047,0,.1,0,.142,0,.974.1,1.824-.62,2.957-.083a6.083,6.083,0,0,0,3.056.29c1.983-.222,3.91.47,5.885.128a5.029,5.029,0,0,1,1.736.015c3.674.654,7.374-.1,11.054.274l.895-1.473.39,1.419c.64,0,1.5.232,1.979-.046,1.2-.7,2.378-.392,3.548-.218a5.92,5.92,0,0,0,2.351-.061A12.822,12.822,0,0,1,107.607,6.924ZM45.739,2.552c-.772,1.192-.772,1.192-1.773,1.187Zm-2.3,1.388.311.036q-.02.274-.04.548a2.91,2.91,0,0,1-.342-.046A4.3,4.3,0,0,1,43.444,3.94ZM113.1,5.352c-.119-.071-.246-.112-.246-.153a1.094,1.094,0,0,1,.092-.314c.071.041.195.076.2.125A1.1,1.1,0,0,1,113.1,5.352Z" transform="matrix(-0.999, 0.035, -0.035, -0.999, 116.204, 7.468)" fill="#b60011"/>
</svg>
