<svg id="그룹_207" data-name="그룹 207" xmlns="http://www.w3.org/2000/svg" width="337.438" height="380.332" viewBox="0 0 337.438 380.332">
  <path id="패스_409" data-name="패스 409" d="M-406.146,610.116c-.559,2.738-.368,6.008-1.846,8.095a31.318,31.318,0,0,0-4.669,11.339c-.66,2.84-2.13,5.608-1.567,8.846.3,1.729-1.6,3.284-1.727,5.394-.27,4.461-3.059,8.268-3.909,12.622-.713,3.655-3.017,6.694-4.1,10.04a46.473,46.473,0,0,1-5.538,10.77c-.823,1.293-.2,2.117.953,2.714,1.016.529.984.991.355,1.99-1.89,3-2.336,6.427-2.482,9.9a2.463,2.463,0,0,1-.2,1.227c-2.162,3.078-1.473,6.9-2.655,10.293-.721,2.068.117,4.927.893,7.215,1.369,4.032,2.969,8.108,6.027,11.191,2.152,2.17,4.55,4.458,7.293,5.571,2.546,1.033,5.73,1.844,8.554-.025a3.365,3.365,0,0,1,2.146-.692c2.391.118,3.882-1.425,5.267-3.093.9-1.087,2.495-1.235,2.968-3.1.791-3.116,1.056-6.518,2.217-9.3,1.384-3.317-.922-7.164,2.055-9.927a.821.821,0,0,0,.169-.729c-1.961-4.733,1.473-8.747,1.87-13.189.216-2.431,2.155-4.649,4.005-6.629,2.6-2.778,5.133-5.655,8.273-7.744,3.487-2.319,6.553-5.2,10.424-7.061,2.433-1.169,4.224-3.642,6.918-4.64.72-.267,1.575-.959,2.18-.5.734.56.4,1.552.064,2.393-.735,1.826.107,3.517.8,5.068a4.916,4.916,0,0,1,.538,3.865c-.5,1.629-1.091,3.5.187,5.2.238.315.443.964.282,1.224-1.551,2.5.258,5.327-.82,7.851-.068.157-.19.376-.132.489,2.112,4.187-.258,8.461.257,12.722.6,4.961-.395,10.049.8,15a18.084,18.084,0,0,0,2.98,6.086,44.5,44.5,0,0,0,3.813,5.392,9.907,9.907,0,0,0,3.536,2.578,8.318,8.318,0,0,1,2.624,1.82c3.094,2.635,6.79,3.575,10.634,4.609,3.535.951,6.857.136,10.13-.209,3.015-.318,6.79-.5,8.386-4.26.435-1.022,1.618-1.59,2.349-2.122,2.422-1.765,2.159-4.007,1.584-6.149-.864-3.22-.605-6.943-3.637-9.341-2.491-1.971-4.552-4.372-7.2-6.267-2.849-2.039-5.031-5.264-3.72-9.406a2.328,2.328,0,0,0,.053-1.029c-.941-5.944,1.481-11.222,3.1-16.7.78-2.632,2.073-5.283,1.53-8.2-.235-1.264.775-2.043,1.142-3.073,1.7-4.763,2.173-9.776,3.218-14.672.431-2.022,1.365-4.987,2.81-5.523,2.955-1.1,6.013-2.385,9.564-2,2.728.3,5.613,2.5,8.472.159.478-.393,1.149-.031,1.618.436a1.516,1.516,0,0,0,1.674.438c2.486-1.256,5.227,1.135,7.648-.594,1.472,1.445,3.219.427,4.824.468,1.7.043,3.287.695,5.222-.138,1.058-.456,3.273.609,5.023.638,3.233.055,6.485-.013,9.691.03,4.3.059,8.744-.465,12.949.754,1.746.506,3.384.219,5.059.4,4,.426,8.05-.28,12.035.495.475.092,1.276-.146,1.333.485.254,2.8,3.12,3.992,3.9,6.315,1.779,5.3,6.157,9.464,6.589,15.32,2.621,2.282,1.64,6.125,4.025,8.792,1.383,1.547,2.181,4.609,2.284,6.792.132,2.842,2.286,4.942,2.017,7.559-.327,3.162.906,6.039,1.835,8.72.864,2.493.172,5.654,2.639,7.573-1.264,2.683,2.388,3.83,1.961,6.376-.2,1.17.862,2.235,1.791,3,1.983,1.635,3.192,3.816,4.682,5.828,1.4,1.894,3.818,3.194,6.025,4.267a19.158,19.158,0,0,1,3.255,1.9c.494.374.92.841,1.572.771,3.88-.423,7.9.065,11.571-1.728a1.508,1.508,0,0,0,.891-1.2c.151-1.38.825-1.954,2.232-1.674a1.475,1.475,0,0,0,.957-.3,10.814,10.814,0,0,0,3.836-11.439c-.366-1.106.607-1.67.463-2.668-.328-2.265-1.84-3.883-2.766-5.814-1.467-3.067-3.358-6.011-3.446-9.588-.036-1.468-.079-2.91-1.454-3.937-1.432-1.07-1.189-3-1.206-4.284-.033-2.4-.984-4.79-.255-7.189a3.206,3.206,0,0,0-.07-2.255c-1.045-2.648.385-5.416-.355-8.155,1,3,2.646,5.619,3.795,8.469,2.144,5.315,4.329,10.647,5.468,16.255.48,2.359,1.239,4.715,1.792,7,.678,2.807,1.37,6.509,5.028,7.766.786.27.783,1.086,1.21,1.608,2.462,3.007,6.066,4.218,9.377,5.782,1.7.8,3.167,2.41,5.422,2.005,3.892-.7,7.937-.837,11.683-1.979a19.451,19.451,0,0,0,7.163-4.491c1.31-1.219,1.226-3.592.763-5.408a11.817,11.817,0,0,1-.4-3.552c.153-2.709-1.365-4.426-3.309-5.687a3.516,3.516,0,0,1-1.892-2.209c-.576-2.829-3.7-3.531-4.792-6.107-2.117-4.986-5.621-9.579-6.589-14.811-.877-4.734-2.712-9.177-3.336-14.007A80.361,80.361,0,0,0-150,649.784a9.862,9.862,0,0,1-.53-5.49c.376-1.447-.381-3.234-.607-4.818-.284-1.981.3-3.9-.343-5.948-1.607-5.08-.685-10.6-2.069-15.716-.593-2.2.213-4.757-1.886-6.741-.554-.522-.234-2.7-.332-4.106a19.051,19.051,0,0,0-1.074-4.147,37.538,37.538,0,0,1-1.2-6.512c-.084-.8.056-1.582-.71-2.031-.6-.354-.685-.743-.734-1.428-.391-5.5-2.178-10.706-3.4-16.034-.953-4.167-2.988-8.316-3.031-12.386-.047-4.413-2.486-8.79-.456-13.231.21-.46.23-1.082.558-1.4,2.474-2.4,3.7-5.483,5.183-8.512a39.928,39.928,0,0,1,3.115-6.062,8.028,8.028,0,0,0,1.742-4.468,2.027,2.027,0,0,1,.139-1.017c3.171-4.452,2.593-10.072,4.678-14.934,1.328-3.1.845-6.922,1.546-10.343a19.4,19.4,0,0,0-.937-10.43,13.652,13.652,0,0,1-.958-3.346,5.666,5.666,0,0,0-2.143-4.261c-2.523-1.752-3.012-5.585-6.575-6.3-.7-.138-.236-1.066-.349-1.622-.491-2.425-.971-4.827-3.679-5.953a4.562,4.562,0,0,0-6.345,2.716c-.862,2.171-3.329,2.463-4.831,2.463-3.127,0-5.784,2.154-8.942,1.479-1.027-.219-1.524.954-2.5,1.3-3.236,1.146-6.305.686-9.475.2-3.073-.471-6.008.6-8.712,1.63-2.3.875-5.031.741-6.932,2.592-1.465,1.427-3.356,2.209-4.919,3.561-2.687,2.323-5.328,4.691-9,5.911-2.147.714-4.826,1.1-6.482,2.538-2.91,2.525-7.032,3.072-9.448,6.285a5.349,5.349,0,0,1-2.821,1.521c-4.546,1.076-6.6,5.412-10.34,7.566-1.7.978-1.4,4.092-.962,5.98.3,1.307,1.092,2.707,1.526,4.165a5.3,5.3,0,0,0,2.661,3.581c1.826.9,1.816,3.511,3.681,4.475,1.422.737,2.348,2.1,3.49,2.972,3.1,2.364.037,3.642-.639,5.062-.455.953-1.107,1.9-1.647,2.858a6.99,6.99,0,0,1-4.9,3.124,134.86,134.86,0,0,1-16.637,1.718c-1.227.029-2.4-.108-3.381.888a1.829,1.829,0,0,1-1.417.494c-2.914-.618-5.792-.03-8.683,0a18.768,18.768,0,0,0-4.8.33,12.8,12.8,0,0,1-6.588-.528c-3.626-1.065-7.128-.721-10.614-.536-1.947.1-3.231-.891-4.806-1.326-3.994-1.1-8.184-.716-12.146-1.8-1.518-.416-2.908-1.288-4.547-1.34-.335-.01-.755-.326-.984-.208-3.669,1.895-7.427-.684-11.172.24a25.432,25.432,0,0,1-3.769.526c-4.444.381-8.933-.538-13.3.174-2.969.484-6.017.26-8.988,1.717-2.672,1.31-5.982,1.5-9.048,1.773-2.9.259-5.051,2.049-7.58,3.036a11.678,11.678,0,0,1-1.3.611,10.809,10.809,0,0,0-4.29,2.731,14.64,14.64,0,0,1-6.8,3.493c-.808.149-1.746.24-2.012.945-.913,2.416-3.915,2.871-4.769,5.277-.435,1.227-1.806,1.31-2.639,2.22-3.945,4.313-7.621,8.827-11.275,13.381-1.367,1.7-2.265,3.765-4.121,5.162-.95.715-.9,2.3-1.665,3.476-2.039,3.136-5.278,5.638-6.455,9.042-1.552,4.49-5.9,7.076-6.925,11.86-.415,1.938-2.8,3.2-3.782,5.275a72.286,72.286,0,0,1-6,10.881c-1.716,2.433-3.309,5.295-6.484,6.383a2.022,2.022,0,0,0-1.408,1.7,4.6,4.6,0,0,1-3.192,3.443c-2.641.832-3.854,2.849-5.014,4.877-.624,1.091-1.668,1.41-2.4,2.227a16.2,16.2,0,0,0-3.572,8,16.609,16.609,0,0,0,.871,7.677c.46,1.469,2.646,1.819,4.1,2.434a36.44,36.44,0,0,0,7.115,2.038c2.066.407,4.147-.964,5.317-2.017,2.852-2.566,6.743-3.761,8.97-7.11a66.564,66.564,0,0,1,5.485-6.824c1.607-1.836,2.678-4.148,4.741-5.683,1.3-.97,3.188-1.988,2.6-4.3a.77.77,0,0,1,.332-.663c2.982-1.319,2.786-4.781,4.712-6.966a39.74,39.74,0,0,0,6.285-10.649C-412.015,614.9-409.282,612.435-406.146,610.116Zm-5.271-2.564c-1.164.987-2.492,1.542-3.37,3.154-.912,1.676-1.7,3.9-3.878,4.723a5.592,5.592,0,0,1-1.776,4.229c-2,2.1-2.022,5.365-4.384,7.218-.237,2.886-2.161,4.772-3.978,6.723-1.219,3.194-3.665,5.549-5.622,8.239-.269,1.971-2.512,1.877-3.371,3.219a25.827,25.827,0,0,1-6.135,7.171c-2.324,1.737-4.113,3.975-7.186,4.885a8.444,8.444,0,0,1-5.158-.32c-1.309-.371-3.333-4.169-2.971-5.19.831-2.343,1.209-4.937,3.939-6.124a2.92,2.92,0,0,0,1.445-1.754c.769-3.119,3.707-4.145,5.625-6.15,1.689-1.767,3.928-2.976,5.463-4.684,1.312-1.461,2.713-2.971,3.955-4.557A11.738,11.738,0,0,1-434.342,622a41.651,41.651,0,0,1,5.845-10.783c2.477-2.379,2.975-5.955,5.321-8.519,1.6-1.751,3.454-3.827,4.183-5.86.822-2.292,2.355-3.832,3.458-5.765.585-1.026,2.078-1.349,2.142-2.777.1-2.143,1.428-3.5,3-4.707.423-.626.868-1.238,1.267-1.879a64.75,64.75,0,0,1,9.14-11.492c2.045-1.282,2.809-3.828,4.992-5a4.669,4.669,0,0,0,1.849-2.4,5.2,5.2,0,0,1,2.459-2.4c1.905-1.092,4.4-.776,5.925-2.18,1.806-1.657,3.6-2.935,6.054-3.18a12.165,12.165,0,0,1,8.9-3.449c3.125-1.993,6.718-2.175,10.212-2.231,1.391-.022,2.318-1.806,3.783-.714,5.174-1.053,10.419-.6,15.635-.747.662-.41,1.355.024,2.022-.071,4.111-.586,8.233.091,12.323.21a32.057,32.057,0,0,1,7.456,1.39c.394-.163.885-.567,1.165-.452,3.649,1.506,7.695,1.512,11.333,3.031a5.891,5.891,0,0,1,3.049-.438c3.259.172,6.458,1.13,9.747.762,4.561.375,9.2-.719,13.705.7,2.015.149,3.8-1.525,5.8-.9a4.69,4.69,0,0,0,3.515-.262c2.891-1.5,5.95-.517,8.884-.987a10.743,10.743,0,0,0,1.979-.206c2.119-.328,4.093-1.7,6.365-.956a8.362,8.362,0,0,1,4.1-.948l6.763-5.147c-.217-1.657.713-2.721,1.855-3.718a33.978,33.978,0,0,0,2.963-2.833c1.249-1.388,1.258-2.931-.245-4.066a66.406,66.406,0,0,1-10.882-10.733c-3.529-4.236-2.83-7.608,1.972-10.193a3.76,3.76,0,0,0,.854-.587c3.926-3.828,9.323-5.214,13.736-8.281,3.39-2.357,7.294-3.906,11.059-5.673,5.21-2.445,8.753-7.394,14.278-9.778,4.008-1.73,8.115-3.778,12.05-2.5,3.884,1.263,7.163-.15,10.465-.688,3.336-.543,6.662-1.757,10.071-2.527,3.6-.813,6.419.409,9.533,1.2.415-.1,1.052-.417,1.209-.258,1.665,1.677,4.752,3.39,4.816,4.895.131,3.035,3.085,4.337,3.041,7.589-.036,2.714.567,5.683.413,8.554-.063,1.164,1.231,2.392.4,3.2-1.582,1.542-1.23,3.171-.938,4.931a4.824,4.824,0,0,1-.623,2.454c-1.369,3.748-2.955,7.5-3.032,11.531a7.254,7.254,0,0,1-1.732,4.911c-1.37,1.323-1.409,3.086-2.505,4.362-.5.581.06,1.418-.649,2.117-2.721,2.68-3.473,6.6-5.832,9.563a7.705,7.705,0,0,0-2.109,4.6c-.046,5.345,1.078,10.589,1.446,15.9.157,2.268,1.246,4.206,1.781,6.32.983,3.878,1.435,7.909,2.648,11.7a81.008,81.008,0,0,1,2.675,10.936c.5,2.888,1.424,5.69,1.26,8.68-.031.588-.087,1.351.489,1.67,1.138.631,1.046,1.62,1.1,2.67.178,3.731,2.617,7.112,1.717,11.041-.077.338.487.875.831,1.247a2.409,2.409,0,0,1,.582,1.91,16.188,16.188,0,0,0,.483,6.119c1.08,3.361.2,7.124.767,10.773a35.92,35.92,0,0,1,.574,6.743c-.134,3.474,1.842,6.808,2.141,10.573.393,4.946,2.642,9.714,2.752,14.838a7.571,7.571,0,0,0,.6,3.024c1.516,3.178,2.4,6.653,4.365,9.608.74,1.11-.111,2.266.561,3.468,2.454,4.391,6.013,8.173,7.369,13.177.141.521.561,1.044,1.079,1,2.912-.24,4.245,1.522,4.853,3.943.418,1.666,1.01,4.018.031,5.045-2.433,2.554-6.108,3.5-9.409,3.877-4,.453-8.143.351-12.083-1.8-1.6-.871-2.181-2.322-3.5-3.137a14.667,14.667,0,0,1-7.013-10.657c-.333-2.021-.362-4.257-1.294-5.982-1.984-3.671-1.837-7.995-4.289-11.607-1.409-2.075-1.879-5.029-2.761-7.567-.593-1.71-2.278-2.342-2.6-4.18-.238-1.337.091-2.662-.422-4.039a80.824,80.824,0,0,0-3.211-8.331,3.915,3.915,0,0,1-.012-3.723,2.791,2.791,0,0,0,.177-2.74c-.973-1.7-.386-3.364.243-4.74,2.055-4.5.894-9.525,2.576-14.075a2.009,2.009,0,0,0-1.513-2.641c-1.407-.315-2.056.6-2.46,1.741a33.727,33.727,0,0,0-2.21,10.457,38.752,38.752,0,0,1-1.35,8.878,21.457,21.457,0,0,0-.559,10.678c1.014,4.475.413,9.232-.1,13.834-.307,2.762.406,5.419.521,8.121.072,1.661-1.737,2.93-.536,4.625s1.4,3.96,1.679,5.727c.784,5,3.451,9.134,4.912,13.748.629,1.989,2.644,3.057,2.685,5.037.061,3.031,1.673,6.171-1.713,8.9-3.485,2.8-6.338,6.637-11.51,5.045-2.283-.7-4.8-.531-6.7-3.1a23.743,23.743,0,0,0-4.324-4.922,11.865,11.865,0,0,1-3.984-5.454,71.815,71.815,0,0,1-2.165-7.807c-1.231-4.733-3.57-9.2-3.764-14.156-.07-1.756-1.72-2.662-1.509-4.507.294-2.559-2.487-4.519-1.776-7.3.033-.13-.314-.391-.521-.541a3.58,3.58,0,0,1-1.269-2.137c-.906-3.145-1.625-6.427-3.1-9.305-2.168-4.224-3.264-8.923-6.119-12.856-1.521-2.1-3.883-3.9-3.691-6.96-2.617-.748-3.007-3.57-4.763-5.168-1.568-1.426-2.586-1.488-3.756.191a2.252,2.252,0,0,1-2.5,1.051c-4.791-.479-9.64-.4-14.427-.91-2.614-.281-5.269-.332-7.837-.8a27.658,27.658,0,0,0-7.448-.719c-6.45.76-12.775-.2-19.148-.2-1.039,0-1.972-.817-3.039-.441-3.123,1.1-6.333.6-9.395.058-1.392-.246-2.271,1.27-3.553.377a6.207,6.207,0,0,0-4.4-.759,53.5,53.5,0,0,1-9.054.391,15.667,15.667,0,0,0-7.087.756c-4.16,1.852-8.471.147-12.5,1.514-2.717.922-5.432-.295-8.184-.066-2.167.18-3.2,1.832-4.788,2.74-2.742,1.571-5.953,2.38-8.029,5.061a1.779,1.779,0,0,1-1.917.487c-.6-.211-1.322-.367-1.7.171-1.379,1.975-3.478,2.173-5.576,2.636a6.318,6.318,0,0,0-3.913,3.1c-1.348,2.153-4.314,2.5-5.675,4.735-.083.136-.5.136-.744.1-.853-.13-1.389.489-2.066.749-2.379.913-2.868,3.834-5.346,4.634-2.6.837-3.864,3.6-6.265,4.722a4.055,4.055,0,0,0-1.882,1.457c-1.924,2.726-4.446,4.934-6.011,8.051-.722,1.44-1.63,2.7-1.675,4.345a17.505,17.505,0,0,1-1.633,7.1,20.094,20.094,0,0,0-1.633,9.219c.189,4.285-.741,8.207-1.453,12.235a5.116,5.116,0,0,1-2.049,3.707c-2.769,1.879-5.04,4.168-9.014,3.6-2.916-.42-7.432-2.212-8.648-4.9a21.273,21.273,0,0,0-4.039-5.9c-.395-.415-1.2-.7-.978-1.4,1.381-4.31-.216-8.862,1.217-13.234a40.507,40.507,0,0,0,1.5-4.751c.814-4.229,1.733-8.425,2.874-12.57.291-1.055-.036-2.148.706-3.214a13.533,13.533,0,0,0,2.5-7.154c.025-.5-.082-1.307.177-1.461,2.34-1.4,2.723-3.938,3.166-6.137.386-1.917,1.649-3.347,2.006-5.189a64.733,64.733,0,0,1,2.44-9.034c1.6-4.545,1.74-9.483,4.03-13.8a2.827,2.827,0,0,0-.06-2.276,4.309,4.309,0,0,1,1.416-5.279,2,2,0,0,0,.848-1.765c-.03-.781-.091-1.73.577-2.18,2.464-1.659,1.646-4.564,2.323-6.764,1.023-3.324,1.818-6.78,2.848-10.143a2.065,2.065,0,0,1,.656-1.87c1.592-1.961.254-3.207-1.1-4.273-1.58-1.246-3.354-1.579-4.622.436-.646,1.027-1.752,1.316-2.512,2.1A17.219,17.219,0,0,0-411.417,607.553Zm90.056,39.008c-.666,2.625-2.7,4.418-3,7.131a41.043,41.043,0,0,1-1.827,8.383c-1.058,3.207-1.782,6.6-2.638,9.887-.686,2.639-.164,5.7-2.2,7.953a4.57,4.57,0,0,0-.995,4.563,4.5,4.5,0,0,1-.342,2.222c-1.112,5.033-3.148,10.015-1.389,15.293.358,1.073-.7,2.108.247,3.2,3.278,3.762,7.6,6.346,11.026,9.982a14.41,14.41,0,0,1,3.3,5.91c.429,1.388,1.367,2.848-.331,4.472-2.4,2.3-4.848,3.945-8.279,4.341-1.5.172-2.908-.609-4.251-.1-2.276.864-4.463.222-6.722.161-2.341-.064-2.836-2.1-4.407-2.828a26.929,26.929,0,0,1-9.128-7.03c-3.29-3.9-3.98-9.081-3.817-14.206.029-.916,1.136-1.8.486-2.688-1.2-1.634-.482-3.191-.249-4.851.37-2.629.951-5.258-.306-7.921a2.639,2.639,0,0,1,.376-3.138,2.161,2.161,0,0,0,.49-1.923c-.18-3.2-.48-6.4-.411-9.6a42.828,42.828,0,0,0-1.117-10.3,5.581,5.581,0,0,1-.2-2.15c.2-1.5.331-3.409-.419-4.547-1.089-1.652.114-1.862.887-2.1a9.423,9.423,0,0,0,3.664-2.238,17.513,17.513,0,0,1,6.937-3.868c3.336-.8,6.473-2.837,10.318-2.172,3.256.564,6.613-1.3,10.044-.464a2.76,2.76,0,0,0,1.706-.514C-323.183,647.016-322.616,646.285-321.361,646.561Zm-84.955-37.4c.134-.422.113-1,.719-.814.187.057.375.578.318.831a.968.968,0,0,1-.656.61C-406.4,609.848-406.33,609.427-406.316,609.159Z" transform="translate(464.301 -355.113)" fill="#080807"/>
  <path id="패스_410" data-name="패스 410" d="M-324.652,369.971c-.69,5,1.57,8.688,4.035,12.38,2.8,4.188,6.9,6.907,10.433,10.267,2.824,2.688,6.491,4,9.138,6.969,1.276,1.432,3.061,3.633,5.644,3.974,1.354.179,1.42,1.588,1.455,2.474.1,2.684,1.765,3.128,3.833,2.893a3.923,3.923,0,0,0,3.731-3.7c.127-4.014,1.487-7.69,2.508-11.459a16.766,16.766,0,0,0,.844-5.258c-.071-1.685-.284-3.475.836-5.2a6.206,6.206,0,0,0,.583-4.015c-.629-4.247-.443-8.538-.6-12.81a2.562,2.562,0,0,0-.775-2.1c-.193-.163-.529-.477-.487-.555,1.309-2.431-.383-4.463-.808-6.666-.128-.662.132-1.681-.556-1.839-2.153-.5-2.5-2.349-3.247-3.9a4.013,4.013,0,0,0-3.572-2.081c-2.172.133-4.423-.413-6.6,1.549-3.963,3.572-5.054,7.987-4.988,12.809.022,1.581-1.057,2.61-.968,4.11.046.76-.828.613-1.276.013-1.759-2.359-4.724-2.938-6.93-4.695-2.115-1.683-4.917-1.132-7.466-1.063-1.4.038-1.55,1.563-2.123,2.4C-323.2,366.215-326.154,367.275-324.652,369.971Zm5.638,4.028a7.84,7.84,0,0,0-.3-3.027,2.692,2.692,0,0,1,3.26-3.631,25.75,25.75,0,0,1,6.835,3.336c2.08,1.468,3.348,3.935,5.9,5,1.111.464,2.082,1.5,3.26.495,1.092-.936,2.317-1.953,1.721-3.721a4.574,4.574,0,0,1-.363-2.235,35.244,35.244,0,0,0,.578-8.9c-.288-2.558,2.792-6.271,5.279-6.484a2.123,2.123,0,0,1,1.218.285c1.617,1.007,3.668,7.132,3.109,9.061a4.554,4.554,0,0,0,.089,3.52,8.711,8.711,0,0,1,.659,6.742c-.753,2.518.225,4.895.24,7.33.01,1.426.275,2.816-.334,4.147a3.165,3.165,0,0,0-.321,1.971,10.51,10.51,0,0,1-1.109,6.642c-.408.807-1.33,1.52-.967,2.581a1.717,1.717,0,0,1-.923,2.363c-1.047.528-1.607-.406-2.2-.911-5.228-4.482-11.549-7.506-16.429-12.472-2.08-2.117-4.907-3.482-6.291-6.316C-317.15,377.642-318.243,375.528-319.014,374Z" transform="translate(486.27 -349.344)" fill="#080505"/>
  <path id="패스_411" data-name="패스 411" d="M-311.769,469.1c1.644-5.509-1.769-11.674-3.021-18.1a11.864,11.864,0,0,0-8.6-9.2c-1.767-.495-3.513.772-4.93,1.767-3,2.105-3.314,5.159-2.266,8.448a2.915,2.915,0,0,1,.189,1.457c-.244,1.572-.661,2.534-2.466,1.47a13.963,13.963,0,0,0-3.4-1.67c-4.313-1.129-4.331-1.074-8.277,1.165-.293.166-.765.439-.756.644.115,2.574-.378,5.476.667,7.621,1.027,2.11,3.282,3.758,4.817,5.773.24.316.795.726,1.054.64,1.8-.6,2.7.919,3.987,1.547,3.707,1.811,7.463,3.067,11.787,2.521,1.874-.237,3.9.909,5.882,1.347C-313.954,475.228-311.606,473.432-311.769,469.1Zm-4.971-4.991c.067,3.539-.543,4.815-3.214,4.4-2.423-.377-4.787-.038-7.144-.393-.382-.058-.7-.444-1.079-.619-2.064-.965-4.054-2.336-6.227-2.759-2.7-.526-4.009-2.44-5.557-4.191a1.515,1.515,0,0,1-.211-2.123c.685-.762,1.4-.237,2.149-.137,3.2.428,5.853,2.355,8.975,3.138,1.957.491,3,.608,4.48-.79,1.673-1.582.8-2.844.2-4.4-.488-1.282-.164-2.716-1.362-3.964-.445-.463-.564-2.359-.465-3.512.2-2.283,1.693-2.669,3.611-1.263,2.475,1.815,2.157,4.966,3.178,7.377.727,1.713,1.223,3.984,1.876,5.971A7.616,7.616,0,0,1-316.74,464.112Z" transform="translate(535.374 -353.683)" fill="#080505"/>
  <path id="패스_412" data-name="패스 412" d="M-431.159,605.989c-1.029,3.364-1.825,6.82-2.848,10.144-.677,2.2.142,5.105-2.323,6.764-.668.45-.606,1.4-.577,2.18a2,2,0,0,1-.848,1.765,4.309,4.309,0,0,0-1.416,5.279,2.827,2.827,0,0,1,.06,2.276c-2.29,4.319-2.434,9.258-4.03,13.8a64.736,64.736,0,0,0-2.44,9.034c-.357,1.842-1.62,3.272-2.006,5.189-.443,2.2-.826,4.737-3.166,6.137-.259.154-.152.957-.177,1.461a13.533,13.533,0,0,1-2.5,7.154c-.742,1.065-.415,2.159-.706,3.214-1.142,4.146-2.06,8.342-2.874,12.57a40.509,40.509,0,0,1-1.5,4.751c-1.433,4.372.164,8.924-1.217,13.234-.226.706.583.987.978,1.4a21.273,21.273,0,0,1,4.039,5.9c1.216,2.686,5.731,4.477,8.648,4.9,3.974.573,6.244-1.716,9.014-3.6a5.116,5.116,0,0,0,2.049-3.707c.712-4.027,1.642-7.95,1.453-12.235a20.094,20.094,0,0,1,1.633-9.219,17.505,17.505,0,0,0,1.633-7.1c.046-1.645.953-2.9,1.675-4.345,1.565-3.117,4.087-5.325,6.011-8.051a4.054,4.054,0,0,1,1.882-1.457c2.4-1.126,3.669-3.885,6.265-4.722,2.479-.8,2.968-3.721,5.346-4.633.677-.26,1.213-.88,2.066-.749.246.038.661.038.744-.1,1.361-2.239,4.327-2.582,5.675-4.735a6.318,6.318,0,0,1,3.913-3.1c2.1-.463,4.2-.661,5.576-2.636.376-.538,1.1-.381,1.7-.171a1.779,1.779,0,0,0,1.916-.487c2.076-2.682,5.287-3.491,8.029-5.061,1.587-.908,2.621-2.56,4.788-2.74,2.752-.229,5.467.988,8.184.066,4.03-1.368,8.342.337,12.5-1.514a15.668,15.668,0,0,1,7.087-.756,53.5,53.5,0,0,0,9.054-.391,6.208,6.208,0,0,1,4.4.759c1.282.893,2.16-.623,3.553-.377,3.062.541,6.272,1.038,9.395-.058,1.067-.375,2,.441,3.039.441,6.373,0,12.7.956,19.148.2a27.661,27.661,0,0,1,7.448.719c2.567.469,5.222.519,7.837.8,4.787.513,9.636.431,14.427.91a2.253,2.253,0,0,0,2.5-1.051c1.169-1.678,2.188-1.616,3.756-.191,1.756,1.6,2.146,4.42,4.763,5.168-.192,3.06,2.17,4.864,3.691,6.96,2.855,3.933,3.951,8.632,6.119,12.856,1.478,2.878,2.2,6.16,3.1,9.305a3.58,3.58,0,0,0,1.269,2.137c.207.151.555.412.521.541-.711,2.779,2.07,4.739,1.776,7.3-.212,1.845,1.439,2.75,1.509,4.507.194,4.954,2.533,9.423,3.764,14.156a71.812,71.812,0,0,0,2.165,7.807,11.865,11.865,0,0,0,3.984,5.454,23.744,23.744,0,0,1,4.324,4.922c1.895,2.568,4.412,2.4,6.7,3.1,5.172,1.591,8.024-2.242,11.51-5.045,3.386-2.726,1.774-5.866,1.713-8.9-.041-1.979-2.056-3.048-2.685-5.037-1.461-4.615-4.127-8.751-4.912-13.748-.277-1.767-.487-4.043-1.679-5.727s.607-2.964.536-4.625c-.115-2.7-.828-5.36-.521-8.122.512-4.6,1.113-9.359.1-13.834a21.458,21.458,0,0,1,.559-10.678,38.753,38.753,0,0,0,1.35-8.878,33.727,33.727,0,0,1,2.21-10.457c.4-1.145,1.053-2.056,2.46-1.741a2.009,2.009,0,0,1,1.513,2.641c-1.682,4.55-.521,9.577-2.576,14.075-.629,1.376-1.216,3.043-.243,4.74a2.791,2.791,0,0,1-.177,2.74,3.915,3.915,0,0,0,.012,3.723,80.816,80.816,0,0,1,3.211,8.331c.514,1.377.184,2.7.422,4.039.326,1.838,2.011,2.47,2.6,4.18.882,2.538,1.352,5.492,2.761,7.567,2.452,3.612,2.305,7.936,4.29,11.607.932,1.725.962,3.961,1.294,5.982a14.667,14.667,0,0,0,7.013,10.657c1.322.815,1.906,2.266,3.5,3.137,3.941,2.149,8.086,2.251,12.083,1.8,3.3-.375,6.976-1.323,9.409-3.877.979-1.027.387-3.379-.031-5.045-.608-2.421-1.94-4.183-4.853-3.943-.517.043-.938-.479-1.079-1-1.356-5-4.915-8.786-7.369-13.177-.672-1.2.178-2.358-.561-3.468-1.968-2.955-2.849-6.43-4.365-9.608a7.571,7.571,0,0,1-.6-3.024c-.111-5.124-2.36-9.892-2.752-14.838-.3-3.764-2.276-7.1-2.141-10.573a35.919,35.919,0,0,0-.574-6.743c-.563-3.649.313-7.412-.767-10.773a16.187,16.187,0,0,1-.483-6.119,2.409,2.409,0,0,0-.582-1.91c-.344-.372-.908-.908-.831-1.247.9-3.928-1.539-7.31-1.717-11.041-.051-1.05.041-2.039-1.1-2.67-.576-.318-.52-1.082-.489-1.67.164-2.99-.76-5.792-1.26-8.68a81.009,81.009,0,0,0-2.675-10.936c-1.213-3.795-1.666-7.826-2.648-11.7-.536-2.115-1.624-4.052-1.781-6.32-.368-5.308-1.491-10.552-1.446-15.9a7.7,7.7,0,0,1,2.109-4.6c2.36-2.964,3.112-6.884,5.832-9.563.709-.7.15-1.535.649-2.117,1.1-1.276,1.135-3.039,2.505-4.362a7.253,7.253,0,0,0,1.732-4.911c.076-4.027,1.663-7.783,3.032-11.531a4.824,4.824,0,0,0,.623-2.454c-.293-1.76-.644-3.389.938-4.931.834-.813-.46-2.041-.4-3.2.154-2.871-.449-5.84-.413-8.554.044-3.252-2.91-4.553-3.041-7.589-.065-1.5-3.152-3.217-4.816-4.895-.157-.158-.795.161-1.209.258.289,1.985,3.186,2.379,2.884,4.724a4.849,4.849,0,0,0,.643,1.114c2.243,2.225,2.422,5.423,3.809,8.055.737,1.4-.128,2.643-1.379,3.2-1.406.624-1.85-.4-2.221-1.669a23.211,23.211,0,0,0-2.13-3.925c.093,1.886-1.978,2.012-1.455,3.32.8,1.991-.707,3.048-1.386,4.449a1.647,1.647,0,0,1-2.34.959c-1.031-.471-1.744-1.288-1.267-2.483a16.547,16.547,0,0,0,.65-3.72c-1.38,2.416-3.07,4.613-3.671,7.492-.964,4.615-4.134,8.609-3.554,13.742a7.34,7.34,0,0,1-1.773,5.312,3.037,3.037,0,0,0-.371,2.45c.322,4.008.541,8.025.752,12.041a3.1,3.1,0,0,1-.356,1.491c-1.419,2.782-2.818,5.55-2.225,8.847a1.617,1.617,0,0,1-.314,1.222c-1.747,1.879-1.947,4.577-3.568,6.544a5.319,5.319,0,0,0-1.2,3.883,5.455,5.455,0,0,1-1.591,4.755,25.207,25.207,0,0,0-4.244,5.992c-2.53,4.257-7.289,6.916-8.614,12.048a2.2,2.2,0,0,1-1.072,1.089,5.338,5.338,0,0,0-2.363,2.966,6.429,6.429,0,0,1-1.975,2.662,39.385,39.385,0,0,0-7.741,7.794c-.72,1.047-.779,2.577-2.106,3.167-3.2,1.421-4.472,4.8-7.057,6.854-2.156,1.716-4.832,2.671-6.718,4.8a1.971,1.971,0,0,1-2.232.068,4.369,4.369,0,0,0-5.02.9c-2.728,3.329-6.753,2.249-9.956,3.689-1.918.862-4.125-.537-5.992.907a10.493,10.493,0,0,1-6.037,2.067c-4.653.176-9.25-1.15-13.96-.662-.962.1-2.129-1.344-3.028-1.171-3.5.674-6.73.855-9.318-2.2-.191-.225-.818-.153-1.229-.109-4.992.545-9.2-3.463-14.273-2.436a42.607,42.607,0,0,0-22.983-2.092c-3.449.581-7.049.179-10.394,1.265-3.047.989-6.1.225-9.129.4-2.985.174-6.013-1.032-9.013.4-1.2.569-2.358,0-3.333-.841-.478-.413-.724-1.078-1.692-.577a9.063,9.063,0,0,1-10.465-1.059,1.911,1.911,0,0,0-2.391-.266c-1.007.649-2.183.4-3.232.652-2.022.485-3.884-.435-5.84-.263a6.107,6.107,0,0,1-5.72-2.389,1.736,1.736,0,0,0-2.385-.748c-2.822,1.223-5.291.173-7.931-.872C-426.93,606.85-428.69,604.886-431.159,605.989Z" transform="translate(495.525 -355.647)" fill="#f1e9da"/>
  <path id="패스_413" data-name="패스 413" d="M-160.987,488.447c.3-2.345-2.6-2.739-2.884-4.724-3.113-.788-5.932-2.01-9.533-1.2-3.41.77-6.735,1.984-10.071,2.527-3.3.538-6.581,1.951-10.465.688-3.935-1.279-8.041.769-12.05,2.5-5.525,2.384-9.068,7.332-14.278,9.778-3.764,1.767-7.669,3.316-11.059,5.673-4.412,3.067-9.809,4.452-13.736,8.281a3.763,3.763,0,0,1-.854.587c-4.8,2.585-5.5,5.956-1.972,10.192a66.407,66.407,0,0,0,10.881,10.733c1.5,1.134,1.494,2.678.245,4.066a33.974,33.974,0,0,1-2.963,2.833c-1.143,1-2.073,2.06-1.855,3.718,1.267,3.615,2.278,7.192-.721,10.548-.335.374-.152,1.168-.327,1.731-1.519,4.892-3.3,9.664-6.51,13.757a2.906,2.906,0,0,1-3.286.9c-1.267-.337-1.535-1.38-1.645-2.614-.337-3.8,1.279-6.987,2.766-10.314,1.263-2.827,3.022-5.565,2.961-8.863a8.362,8.362,0,0,0-4.1.948c.094,1.05-.8,1.665-1.125,2.547-1.13,3.093-2.362,6.15-3.576,9.212a3.633,3.633,0,0,1-4.942,1.691c-1.855-1.056-1.577-2.42-.231-3.779a2.1,2.1,0,0,0,.468-1.691,25.241,25.241,0,0,1,1.062-6.819c-2.934.471-5.993-.518-8.884.987a4.69,4.69,0,0,1-3.515.262c-2-.622-3.783,1.051-5.8.9-1.716,2.474-1.263,5.627-2.586,8.235a40.871,40.871,0,0,0-2.551,5.588c-1.409,4.271-3.845,8.115-5.03,12.477a1.96,1.96,0,0,1-2.109,1.212,2.064,2.064,0,0,1-2.067-1.3c-1.12-3.041-2.261-6.062-1.122-9.434a13.843,13.843,0,0,0,.883-5.84c-.336-3.235-.685-6.426,1.4-9.336a1.619,1.619,0,0,0-.525-2.3c-3.29.369-6.488-.59-9.747-.761a5.89,5.89,0,0,0-3.049.438c.153,3.572-1.916,6.689-2.059,10.232a8.861,8.861,0,0,1-1.216,4.692c-2.153,2.919-3.162,5.864-1.991,9.395a.868.868,0,0,1-.125.74c-1.519,1.518-1.307,3.655-2.026,5.44a4.649,4.649,0,0,1-3.473,3.17,5.211,5.211,0,0,1-5.02-1.794c-3.155-3.44-1.118-7.258-.9-10.653.2-3.027,1.047-6.158,1.187-9.309.038-.858-.16-1.83.631-2.411,1.576-1.158,1.528-2.791,1.455-4.444a29.9,29.9,0,0,1,1.035-7.636,32.057,32.057,0,0,0-7.456-1.39c-4.09-.118-8.212-.8-12.323-.21-.667.1-1.36-.338-2.022.071a1.989,1.989,0,0,1-1.234,2.068c-.623.3-1.478.951-1.24,1.5.973,2.256-.182,3.983-1.223,5.69a8.026,8.026,0,0,0-1.03,5.5,3.019,3.019,0,0,1-.183,1.523c-1.274,2.964-2.9,5.807-2.575,9.24a2.2,2.2,0,0,1-.874,1.524c-.765.616-1.207,1.17-.693,2.167.314.61.008,1.133-.381,1.654-2.429,3.257-5.372,3.471-8.151.551a4.6,4.6,0,0,1-1.184-3.318c-.015-1.714.294-3.455-.344-5.135-1.717-4.526,1.476-8.865.542-13.371-.039-.186.292-.422.368-.662.864-2.725,1.714-5.455,2.566-8.185-1.465-1.092-2.391.692-3.782.714-3.495.056-7.088.238-10.212,2.231.111,4.041-1.994,7.4-3.674,10.785-.973,1.96-3.522,1.2-5.232.764-1.6-.4-.84-2.087-.794-3.347.058-1.636,1.21-3.062.8-4.754-2.452.245-4.248,1.523-6.054,3.18-1.53,1.4-4.02,1.087-5.925,2.18a5.2,5.2,0,0,0-2.459,2.4,4.669,4.669,0,0,1-1.849,2.4c-2.182,1.174-2.947,3.72-4.992,5,.493,2.193-1.507,3.974-1.4,5.753.284,4.76-1.5,9.151-1.754,13.776a3.864,3.864,0,0,1-4.027,3.239c-2.027-.227-3.482-1.212-3.188-3.532a39.234,39.234,0,0,0-.037-5.865c-1.572,1.2-2.9,2.564-3,4.707-.064,1.429-1.557,1.751-2.142,2.777-1.1,1.933-2.636,3.473-3.458,5.765-.729,2.033-2.58,4.109-4.183,5.86-2.345,2.564-2.844,6.14-5.321,8.519,1.083.121,1.51.871,1.988,1.766,1.5,2.807.671,5.689.242,8.473-.333,2.157-.093,3.893,1.443,5.425,2.362-1.853,2.382-5.119,4.384-7.218a5.592,5.592,0,0,0,1.776-4.229c-1.738-3.182-1.6-6.543-1.131-10,.218-1.617.338-3.4,2-3.853,1.727-.474,3.819-1.7,5.4.568a2.239,2.239,0,0,0,1.817.86c.963-.545,1.837-1.328,3.071-1.154.76-.783,1.866-1.072,2.512-2.1,1.268-2.016,3.042-1.682,4.622-.436,1.352,1.066,2.691,2.312,1.1,4.273a2.065,2.065,0,0,0-.656,1.87c2.469-1.1,4.229.86,6.169,1.626,2.64,1.045,5.109,2.095,7.931.872a1.736,1.736,0,0,1,2.385.748,6.107,6.107,0,0,0,5.72,2.389c1.956-.172,3.818.748,5.84.263,1.048-.252,2.224,0,3.232-.652a1.911,1.911,0,0,1,2.391.266A9.063,9.063,0,0,0-355.4,612.5c.967-.5,1.213.164,1.692.577.975.842,2.137,1.409,3.333.841,3-1.429,6.028-.222,9.013-.4,3.032-.176,6.082.588,9.129-.4,3.344-1.085,6.945-.683,10.394-1.265a42.607,42.607,0,0,1,22.983,2.092c5.07-1.027,9.281,2.981,14.273,2.436.412-.045,1.039-.116,1.229.109,2.587,3.052,5.813,2.871,9.318,2.2.9-.172,2.066,1.27,3.028,1.171,4.71-.488,9.307.839,13.96.662a10.492,10.492,0,0,0,6.037-2.067c1.867-1.444,4.073-.046,5.992-.907,3.2-1.44,7.228-.36,9.956-3.689a4.369,4.369,0,0,1,5.02-.9,1.971,1.971,0,0,0,2.232-.068c1.886-2.124,4.562-3.079,6.718-4.8,2.585-2.058,3.857-5.433,7.057-6.854,1.328-.59,1.386-2.119,2.106-3.167a39.383,39.383,0,0,1,7.741-7.794,6.429,6.429,0,0,0,1.975-2.662,5.338,5.338,0,0,1,2.363-2.966,2.2,2.2,0,0,0,1.072-1.089c1.326-5.132,6.084-7.791,8.614-12.048a25.207,25.207,0,0,1,4.244-5.992,5.455,5.455,0,0,0,1.591-4.755,5.319,5.319,0,0,1,1.2-3.883c1.621-1.967,1.821-4.665,3.568-6.544a1.617,1.617,0,0,0,.314-1.222c-.593-3.3.806-6.065,2.225-8.847a3.1,3.1,0,0,0,.356-1.491c-.211-4.016-.43-8.033-.752-12.041a3.037,3.037,0,0,1,.371-2.45,7.34,7.34,0,0,0,1.773-5.312c-.58-5.133,2.59-9.128,3.554-13.742.6-2.879,2.291-5.076,3.672-7.491.478-2.347,1.766-4.367,2.626-6.53C-164.482,488.821-163.182,488.23-160.987,488.447Zm-64.24,17.283c1.729.089,1.909,2.134,3.376,2.6,1.313.417,1.3,1.591.944,2.586-1.384,3.862-3.508,7.51-3.118,11.85a1.332,1.332,0,0,1-1.077,1.325c-2.891.13-5.132,3.841-8.568,1.419-.717-.505-1.784-.631-2.593-1.37a18.024,18.024,0,0,0-4.5-3.288c-1.253-.563-2.743-1.035-2.674-2.343.077-1.451.032-3.057,1.664-4.313,2.953-2.272,6.385-3.68,9.494-5.647C-230.25,507.261-227.6,506.611-225.226,505.73Zm-50.392,71.648c-.287-.669.083-1.207.174-1.758.409-2.478,2.149-4.457,2.6-6.82.408-2.124,1.133-3.481,3.386-3.317,1.863.137,2.788,2.459,2.818,4.492.054,3.542-1.73,6.564-2.392,9.9-1.139,5.739-1.354,11.791-4.616,17.092-1.167,1.9-2.1,3.256-4.233,2.628-2.261-.666-2.558-2.691-1.988-4.674.537-1.869,1.208-3.7,1.79-5.566C-276.85,585.418-276.423,581.371-275.619,577.378Zm-92.819,27.9c.153,1.8-.3,2.91-2.016,3.305-1.952.449-3.892,1.119-5.492-.741a1.372,1.372,0,0,1-.232-.982c.453-3.142-1.121-6.029-.291-9.473,1.057-4.386,1.751-8.606,4.835-12.145,1.112-1.276,2.138-2.231,3.645-1.287,1.49.932,2.359,2.655,1.312,4.247-1.709,2.6-.13,5.738-1.7,8.283a.793.793,0,0,0,.1.74c1.434,1.467.69,3.1.258,4.61C-368.362,603.072-369.133,604.194-368.438,605.282Zm180.05-75.2c.585,2.454-1.613,3.481-1.734,5.308-.341,5.144-1.868,10.006-3.578,14.834-.424,1.2-.886,1.857-2.151,1.567-1.227-.28-2.391-.725-2.04-2.376.562-2.644,2.009-5.135,1.358-7.985-.016-.072.045-.166.082-.243,1.554-3.156,1.932-6.687,2.968-10a148.738,148.738,0,0,1,6.884-16.9c.561-1.241,1.159-2.66,2.761-1.7a2.283,2.283,0,0,1,.524,3.443c-1.181,1.388-1.207,3-1.462,4.545a9.331,9.331,0,0,1-1.736,4.242C-187.883,526.555-187.667,528.64-188.388,530.082Zm-3.113-21.828a2.112,2.112,0,0,1,2.034,3.187c-1.652,3.549-4.461,6.206-7.2,8.9-4.224,4.144-7.34,9.181-11.025,13.76-.849,1.056-1.675,1.521-2.84,1.042-1.085-.447-1.207-1.337-1.113-2.556.169-2.193,2.081-3.315,2.7-5.214,1.16-3.545,3.977-6.092,6.506-8.481a57.259,57.259,0,0,0,5.1-5.8C-195.652,511.009-193.375,509.652-191.5,508.254Zm-143.627,58.26a2.884,2.884,0,0,1,2.18-3.457,3.352,3.352,0,0,1,4.141,1.171,4.412,4.412,0,0,1,.881,3.915,25.3,25.3,0,0,0-.461,5.652c-.1,2.123-1.128,4.053-1.284,6.225-.071.993-1.5,2.039-2.522,2.769a2.59,2.59,0,0,1-2.947-.07c-.938-.639-1.864-1.451-1.438-2.769a5.915,5.915,0,0,0-.036-2.257c-.054-1.43-.565-2.99.5-4.256,1.389-1.656,2.338-3.314,1.017-5.475C-335.293,567.649-335.127,567.115-335.127,566.515Zm142.772-77.085a2.243,2.243,0,0,1,2.432,1.762c.256,1.17-.718,1.431-1.5,2.022-1.7,1.281-3.991,1.712-5.185,3.783a1.724,1.724,0,0,1-2.882.321c-.933-.872-2.268-1.865-1.21-3.25C-198.646,491.375-196.2,489.135-192.355,489.429Z" transform="translate(463.903 -355.589)" fill="#f89119"/>
  <path id="패스_414" data-name="패스 414" d="M-226.646,655.159c-1.255-.275-1.822.456-2.546.865a2.761,2.761,0,0,1-1.706.514c-3.431-.835-6.787,1.028-10.044.464-3.845-.665-6.983,1.37-10.318,2.172a17.512,17.512,0,0,0-6.937,3.868,9.423,9.423,0,0,1-3.664,2.238c-.773.234-1.977.445-.887,2.1.75,1.138.62,3.045.419,4.547a5.582,5.582,0,0,0,.2,2.15,42.827,42.827,0,0,1,1.117,10.3c-.07,3.2.231,6.4.411,9.6a2.161,2.161,0,0,1-.49,1.923,2.639,2.639,0,0,0-.376,3.138c1.257,2.664.676,5.292.306,7.921-.233,1.66-.953,3.217.249,4.851.65.884-.457,1.773-.486,2.688-.163,5.125.527,10.31,3.817,14.206a26.928,26.928,0,0,0,9.128,7.03c1.571.726,2.066,2.764,4.407,2.828,2.259.061,4.446.7,6.722-.161,1.344-.511,2.751.27,4.251.1,3.431-.4,5.876-2.039,8.279-4.341,1.7-1.625.76-3.085.331-4.473a14.41,14.41,0,0,0-3.3-5.91c-3.427-3.636-7.748-6.22-11.026-9.982-.947-1.088.111-2.123-.247-3.2-1.759-5.278.276-10.26,1.389-15.293a4.5,4.5,0,0,0,.342-2.221,4.57,4.57,0,0,1,.995-4.563c2.038-2.251,1.515-5.314,2.2-7.953.856-3.291,1.58-6.681,2.638-9.887a41.043,41.043,0,0,0,1.827-8.383C-229.347,659.577-227.313,657.785-226.646,655.159Z" transform="translate(369.586 -363.711)" fill="#f0e8d9"/>
  <path id="패스_415" data-name="패스 415" d="M-236.472,552.391c-.853,2.729-1.7,5.46-2.566,8.184-.076.24-.407.477-.368.662.934,4.506-2.26,8.845-.542,13.371.639,1.68.329,3.421.344,5.135a4.6,4.6,0,0,0,1.184,3.318c2.779,2.92,5.722,2.706,8.151-.551.389-.521.7-1.044.381-1.654-.515-1-.072-1.551.693-2.167a2.2,2.2,0,0,0,.874-1.524c-.324-3.433,1.3-6.276,2.575-9.239a3.019,3.019,0,0,0,.183-1.523,8.026,8.026,0,0,1,1.03-5.5c1.041-1.708,2.2-3.435,1.223-5.69-.238-.551.617-1.2,1.24-1.5a1.989,1.989,0,0,0,1.234-2.068C-226.053,551.8-231.3,551.338-236.472,552.391Z" transform="translate(344.954 -358.85)" fill="#ea730a"/>
  <path id="패스_416" data-name="패스 416" d="M-271.3,553.225a29.9,29.9,0,0,0-1.035,7.636c.072,1.653.121,3.286-1.455,4.444-.791.581-.593,1.553-.631,2.411-.14,3.151-.989,6.282-1.187,9.309-.222,3.395-2.26,7.212.9,10.653a5.211,5.211,0,0,0,5.02,1.794,4.648,4.648,0,0,0,3.473-3.17c.72-1.785.507-3.922,2.026-5.44a.868.868,0,0,0,.125-.74c-1.171-3.531-.162-6.476,1.991-9.395a8.86,8.86,0,0,0,1.216-4.692c.144-3.542,2.213-6.66,2.06-10.232-3.639-1.518-7.684-1.525-11.333-3.031C-270.415,552.658-270.907,553.062-271.3,553.225Z" transform="translate(417.219 -358.902)" fill="#eb740a"/>
  <path id="패스_417" data-name="패스 417" d="M-121.105,636.037c-1.242,1.586-2.643,3.1-3.955,4.557-1.534,1.708-3.774,2.917-5.463,4.684-1.917,2.005-4.856,3.031-5.625,6.15a2.92,2.92,0,0,1-1.445,1.755c-2.729,1.186-3.108,3.781-3.939,6.124-.362,1.021,1.662,4.819,2.971,5.19a8.445,8.445,0,0,0,5.158.32c3.073-.91,4.861-3.148,7.186-4.885a25.829,25.829,0,0,0,6.135-7.171c.859-1.342,3.1-1.249,3.371-3.219-.679-1.685-2.97-2.047-3.258-4.1-.34-2.425-1.316-4.781-.377-7.3C-120.074,637.4-119.881,636.38-121.105,636.037Z" transform="translate(146.587 -362.815)" fill="#e7720a"/>
  <path id="패스_418" data-name="패스 418" d="M-302.029,556.29a1.619,1.619,0,0,1,.525,2.3c-2.087,2.91-1.738,6.1-1.4,9.336a13.842,13.842,0,0,1-.883,5.84c-1.14,3.372,0,6.393,1.122,9.434a2.064,2.064,0,0,0,2.067,1.3,1.96,1.96,0,0,0,2.109-1.212c1.185-4.362,3.621-8.205,5.03-12.477a40.868,40.868,0,0,1,2.551-5.588c1.323-2.608.869-5.761,2.586-8.235C-292.832,555.572-297.467,556.666-302.029,556.29Z" transform="translate(473.241 -359.066)" fill="#ea730a"/>
  <path id="패스_419" data-name="패스 419" d="M-339.04,552.3c.061,3.3-1.7,6.036-2.961,8.863-1.487,3.327-3.1,6.512-2.766,10.314.11,1.234.378,2.277,1.645,2.614a2.906,2.906,0,0,0,3.286-.9c3.213-4.092,4.991-8.865,6.51-13.757.175-.562-.008-1.357.327-1.731,3-3.356,1.989-6.933.721-10.548Z" transform="translate(554.601 -358.639)" fill="#eb740a"/>
  <path id="패스_420" data-name="패스 420" d="M-141.584,633.736c-1.536-1.532-1.775-3.269-1.443-5.426.429-2.785,1.253-5.667-.242-8.473-.477-.9-.905-1.645-1.988-1.766a41.651,41.651,0,0,0-5.845,10.783,12.023,12.023,0,0,1-.357,3.31c-.928,4.623,1.676,8.205,5.9,8.294C-143.746,638.507-141.822,636.621-141.584,633.736Z" transform="translate(181.06 -361.971)" fill="#e7720a"/>
  <path id="패스_421" data-name="패스 421" d="M-177.789,588.422a39.229,39.229,0,0,1,.037,5.865c-.294,2.32,1.161,3.305,3.188,3.532a3.864,3.864,0,0,0,4.027-3.239c.254-4.625,2.038-9.015,1.755-13.776-.107-1.779,1.893-3.56,1.4-5.753a64.753,64.753,0,0,0-9.14,11.492C-176.921,587.184-177.366,587.8-177.789,588.422Z" transform="translate(231.695 -359.95)" fill="#e8730b"/>
  <path id="패스_422" data-name="패스 422" d="M-329.5,554.7a25.241,25.241,0,0,0-1.062,6.819,2.1,2.1,0,0,1-.468,1.691c-1.347,1.359-1.625,2.723.231,3.779a3.633,3.633,0,0,0,4.942-1.691c1.214-3.062,2.445-6.118,3.576-9.212.322-.882,1.22-1.5,1.126-2.547-2.272-.742-4.246.628-6.365.956A10.737,10.737,0,0,1-329.5,554.7Z" transform="translate(532.617 -358.928)" fill="#ea730a"/>
  <path id="패스_423" data-name="패스 423" d="M-137.457,640.99c-4.221-.089-6.825-3.671-5.9-8.294a12.025,12.025,0,0,0,.357-3.31,11.738,11.738,0,0,0-4.476,6.339c1.225.343,1.031,1.368.759,2.1-.939,2.521.037,4.877.377,7.3.289,2.056,2.58,2.418,3.258,4.1C-141.122,646.539-138.676,644.183-137.457,640.99Z" transform="translate(172.955 -362.503)" fill="#f89119"/>
  <path id="패스_424" data-name="패스 424" d="M-157.073,609.349a2.239,2.239,0,0,1-1.817-.86c-1.579-2.27-3.671-1.042-5.4-.568-1.659.455-1.779,2.236-2,3.853-.467,3.458-.607,6.82,1.131,10,2.173-.824,2.966-3.047,3.878-4.723.878-1.612,2.206-2.167,3.369-3.154A5.5,5.5,0,0,1-157.073,609.349Z" transform="translate(210.79 -361.459)" fill="#e8730b"/>
  <path id="패스_425" data-name="패스 425" d="M-208.35,558.967c.407,1.692-.745,3.117-.8,4.754-.046,1.26-.807,2.943.794,3.347,1.71.432,4.259,1.2,5.232-.764,1.68-3.385,3.784-6.744,3.674-10.785A12.165,12.165,0,0,0-208.35,558.967Z" transform="translate(293.941 -359.032)" fill="#e8730b"/>
  <path id="패스_426" data-name="패스 426" d="M-168.815,609.4a5.5,5.5,0,0,0-.835,4.55,17.236,17.236,0,0,1,3.905-5.7C-166.978,608.07-167.851,608.854-168.815,609.4Z" transform="translate(222.533 -361.508)" fill="#f0e8d9"/>
  <path id="패스_427" data-name="패스 427" d="M-172.155,615.874c-.014.268-.084.689.381.627a.968.968,0,0,0,.656-.61c.057-.253-.132-.774-.318-.831C-172.041,614.876-172.02,615.452-172.155,615.874Z" transform="translate(230.139 -361.828)"/>
  <path id="패스_428" data-name="패스 428" d="M-318.445,374.27c.771,1.529,1.864,3.642,2.908,5.779,1.384,2.833,4.21,4.2,6.291,6.316,4.88,4.966,11.2,7.99,16.429,12.472.589.505,1.148,1.439,2.2.911a1.717,1.717,0,0,0,.923-2.363c-.363-1.061.559-1.774.967-2.581a10.51,10.51,0,0,0,1.109-6.642,3.164,3.164,0,0,1,.321-1.971c.609-1.331.343-2.722.334-4.147-.015-2.435-.993-4.812-.24-7.33a8.711,8.711,0,0,0-.659-6.742,4.554,4.554,0,0,1-.089-3.52c.559-1.929-1.491-8.054-3.109-9.061a2.123,2.123,0,0,0-1.218-.285c-2.486.213-5.567,3.926-5.279,6.484a35.244,35.244,0,0,1-.578,8.9,4.573,4.573,0,0,0,.363,2.235c.6,1.768-.629,2.785-1.721,3.721-1.178,1.009-2.149-.03-3.26-.495-2.547-1.064-3.815-3.531-5.9-5a25.75,25.75,0,0,0-6.835-3.336,2.692,2.692,0,0,0-3.26,3.631A7.841,7.841,0,0,1-318.445,374.27Z" transform="translate(485.701 -349.614)" fill="#ca0000"/>
  <path id="패스_429" data-name="패스 429" d="M-315.877,464.358a7.616,7.616,0,0,0-.783-3.269c-.654-1.987-1.149-4.257-1.876-5.971-1.022-2.411-.7-5.563-3.178-7.377-1.918-1.407-3.414-1.021-3.611,1.263-.1,1.153.02,3.049.465,3.512,1.2,1.248.874,2.682,1.362,3.964.594,1.559,1.47,2.821-.2,4.4-1.479,1.4-2.523,1.281-4.48.79-3.122-.783-5.779-2.71-8.975-3.138-.749-.1-1.464-.625-2.149.137a1.515,1.515,0,0,0,.211,2.123c1.548,1.752,2.855,3.665,5.557,4.191,2.173.423,4.163,1.794,6.227,2.759.375.175.7.561,1.079.619,2.357.355,4.72.015,7.144.393C-316.421,469.173-315.811,467.9-315.877,464.358Z" transform="translate(534.512 -353.929)" fill="#c60000"/>
  <path id="패스_430" data-name="패스 430" d="M-425.158,488.75c-2.2-.216-3.5.375-4.448,2.77-.86,2.163-2.147,4.183-2.626,6.53a16.608,16.608,0,0,1-.651,3.719c-.477,1.194.235,2.012,1.267,2.483a1.647,1.647,0,0,0,2.34-.959c.679-1.4,2.181-2.458,1.386-4.449-.523-1.308,1.549-1.434,1.455-3.32a23.211,23.211,0,0,1,2.13,3.925c.371,1.272.815,2.293,2.221,1.669,1.251-.556,2.116-1.8,1.379-3.2-1.388-2.632-1.566-5.829-3.809-8.055A4.849,4.849,0,0,1-425.158,488.75Z" transform="translate(728.075 -355.892)" fill="#080505"/>
  <path id="패스_431" data-name="패스 431" d="M-347.2,506.887c-2.374.882-5.023,1.531-7.056,2.817-3.109,1.967-6.54,3.375-9.494,5.647-1.632,1.256-1.587,2.863-1.664,4.313-.069,1.308,1.421,1.78,2.674,2.343a18.024,18.024,0,0,1,4.5,3.288c.809.74,1.876.865,2.593,1.37,3.436,2.422,5.676-1.289,8.568-1.419A1.332,1.332,0,0,0-346,523.922c-.39-4.34,1.734-7.988,3.118-11.85.356-.995.369-2.168-.944-2.586C-345.294,509.021-345.474,506.976-347.2,506.887Z" transform="translate(585.88 -356.747)" fill="#bd7a24"/>
  <path id="패스_432" data-name="패스 432" d="M-312.719,581.481c-.8,3.993-1.231,8.04-2.459,11.979-.581,1.862-1.252,3.7-1.79,5.566-.57,1.982-.274,4.007,1.988,4.674,2.135.628,3.066-.733,4.233-2.628,3.262-5.3,3.478-11.353,4.616-17.092.662-3.337,2.446-6.359,2.392-9.9-.031-2.033-.955-4.354-2.818-4.492-2.253-.165-2.978,1.192-3.386,3.317-.454,2.362-2.194,4.342-2.6,6.82C-312.636,580.273-313.006,580.812-312.719,581.481Z" transform="translate(501.004 -359.692)" fill="#eb740a"/>
  <path id="패스_433" data-name="패스 433" d="M-204.452,610.278c-.695-1.088.076-2.21.429-3.444.432-1.51,1.176-3.143-.258-4.61a.793.793,0,0,1-.1-.74c1.567-2.545-.012-5.681,1.7-8.283,1.046-1.592.178-3.315-1.312-4.247-1.508-.944-2.533.01-3.645,1.287-3.084,3.539-3.778,7.759-4.835,12.145-.83,3.444.743,6.331.291,9.473a1.372,1.372,0,0,0,.232.982c1.6,1.86,3.54,1.19,5.492.741C-204.752,613.188-204.3,612.079-204.452,610.278Z" transform="translate(299.918 -360.585)" fill="#eb740a"/>
  <path id="패스_434" data-name="패스 434" d="M-395.667,531.562c.72-1.442.505-3.527,1.875-5.267a9.331,9.331,0,0,0,1.736-4.242c.254-1.548.281-3.157,1.462-4.545a2.283,2.283,0,0,0-.524-3.443c-1.6-.959-2.2.46-2.761,1.7a148.741,148.741,0,0,0-6.884,16.9c-1.036,3.317-1.413,6.848-2.968,10-.037.077-.1.172-.082.243.651,2.85-.8,5.342-1.358,7.985-.351,1.651.813,2.1,2.04,2.376,1.265.29,1.727-.369,2.151-1.567,1.71-4.829,3.236-9.69,3.578-14.834C-397.279,535.043-395.082,534.016-395.667,531.562Z" transform="translate(671.182 -357.069)" fill="#fed29e"/>
  <path id="패스_435" data-name="패스 435" d="M-378.3,509.536c-1.875,1.4-4.152,2.755-5.836,4.834a57.253,57.253,0,0,1-5.1,5.8c-2.529,2.389-5.346,4.936-6.506,8.481-.62,1.9-2.533,3.021-2.7,5.214-.093,1.219.028,2.109,1.113,2.556,1.165.479,1.991.014,2.84-1.042,3.685-4.579,6.8-9.617,11.025-13.76,2.743-2.692,5.552-5.349,7.2-8.9A2.112,2.112,0,0,0-378.3,509.536Z" transform="translate(650.702 -356.871)" fill="#fed29e"/>
  <path id="패스_436" data-name="패스 436" d="M-251.4,570.485c0,.6-.166,1.134.027,1.45,1.321,2.161.372,3.819-1.017,5.475-1.062,1.267-.551,2.827-.5,4.256a5.915,5.915,0,0,1,.036,2.257c-.426,1.318.5,2.13,1.438,2.769a2.59,2.59,0,0,0,2.947.07c1.022-.731,2.451-1.776,2.522-2.769.155-2.172,1.179-4.1,1.284-6.225a25.3,25.3,0,0,1,.461-5.652,4.412,4.412,0,0,0-.881-3.915,3.352,3.352,0,0,0-4.141-1.171A2.884,2.884,0,0,0-251.4,570.485Z" transform="translate(380.18 -359.56)" fill="#eb740a"/>
  <path id="패스_437" data-name="패스 437" d="M-389.019,489.782c-3.841-.294-6.291,1.946-8.35,4.639-1.058,1.385.277,2.378,1.21,3.25a1.724,1.724,0,0,0,2.882-.321c1.194-2.072,3.482-2.5,5.185-3.783.787-.591,1.761-.852,1.5-2.022A2.243,2.243,0,0,0-389.019,489.782Z" transform="translate(660.567 -355.942)" fill="#080505"/>
</svg>
